<svg width="432" height="186" viewBox="0 0 432 186" fill="none" xmlns="http://www.w3.org/2000/svg">
<path d="M79.224 185.512V144.808H0.632V119.72L88.184 6.82399H107.384V119.208H129.912V144.808H107.384V185.512H79.224ZM29.304 119.208H82.296V49.832L29.304 119.208ZM283.628 77.992C283.628 93.0107 280.727 106.408 274.924 118.184C269.292 129.789 261.527 138.92 251.628 145.576C241.9 152.232 230.721 155.56 218.092 155.56C205.633 155.56 194.455 152.232 184.556 145.576C174.657 138.92 166.807 129.789 161.004 118.184C155.372 106.408 152.556 93.0107 152.556 77.992C152.556 62.9733 155.372 49.6613 161.004 38.056C166.807 26.28 174.657 17.064 184.556 10.408C194.455 3.58133 205.633 0.167999 218.092 0.167999C230.721 0.167999 241.9 3.58133 251.628 10.408C261.527 17.064 269.292 26.28 274.924 38.056C280.727 49.6613 283.628 62.9733 283.628 77.992ZM254.956 77.992C254.956 67.752 253.42 58.792 250.348 51.112C247.276 43.2613 242.924 37.2027 237.292 32.936C231.66 28.4987 225.26 26.28 218.092 26.28C210.753 26.28 204.268 28.4987 198.636 32.936C193.004 37.2027 188.567 43.2613 185.324 51.112C182.252 58.792 180.716 67.752 180.716 77.992C180.716 88.232 182.252 97.192 185.324 104.872C188.567 112.552 193.004 118.611 198.636 123.048C204.268 127.315 210.753 129.448 218.092 129.448C225.26 129.448 231.575 127.315 237.036 123.048C242.668 118.611 247.02 112.552 250.092 104.872C253.335 97.192 254.956 88.232 254.956 77.992ZM380.974 185.512V144.808H302.382V119.72L389.934 6.82399H409.134V119.208H431.662V144.808H409.134V185.512H380.974ZM331.054 119.208H384.046V49.832L331.054 119.208Z" fill="#EDD5A9"/>
</svg>
