<svg width="27" height="32" viewBox="0 0 27 32" fill="none" xmlns="http://www.w3.org/2000/svg">
<path d="M25.8997 21.8207C24.7349 23.8692 22.4682 25.7565 21.6917 26.4712C20.9152 27.186 16.835 30.2108 16.4468 30.4397C16.0585 30.6686 14.0196 31.9346 13.7918 32H13.2082C12.9827 31.9346 10.9415 30.6663 10.5532 30.4397C10.165 30.2131 6.08716 27.1883 5.30833 26.4712C4.53182 25.7565 2.26508 23.8692 1.10032 21.8207C-0.0644393 19.7723 0.000658023 17.2029 0.000658023 17.2029V0H26.9993V17.2029C26.9993 17.2029 27.0644 19.7723 25.8997 21.8207Z" fill="#E8CA93"/>
<path d="M25.8997 21.8207C24.7349 23.8692 22.4682 25.7565 21.6917 26.4712C20.9152 27.186 16.835 30.2108 16.4468 30.4397C16.0585 30.6686 14.0196 31.9346 13.7918 32H13.2082C12.9827 31.9346 10.9415 30.6663 10.5532 30.4397C10.165 30.2131 6.08716 27.1883 5.30833 26.4712C4.53182 25.7565 2.26508 23.8692 1.10032 21.8207C-0.0644393 19.7723 0.000658023 17.2029 0.000658023 17.2029V0H26.9993V17.2029C26.9993 17.2029 27.0644 19.7723 25.8997 21.8207Z" fill="url(#paint0_linear_1187_5684)" fill-opacity="0.1"/>
<path d="M12.5181 9.74109L5.05527 23.5431H2.96289L12.5181 6.21875L18.1141 16.5569L10.6512 16.6129L12.46 13.2611L13.3086 14.9101H15.3428L12.5181 9.74109Z" fill="white"/>
<path d="M19.0752 18.2588L23.7691 27.1767L22.5253 28.3703L18.1151 20.076L10.708 20.02L8.95741 23.5423H6.69531L9.69207 18.2588H19.0752Z" fill="white"/>
<path d="M26.1966 24.3962L24.9551 25.8724L13.3633 4.40199L14.4955 2.52637L26.1966 24.3962Z" fill="white"/>
<defs>
<linearGradient id="paint0_linear_1187_5684" x1="13.5" y1="13.1148" x2="13.5" y2="32" gradientUnits="userSpaceOnUse">
<stop stop-color="white"/>
<stop offset="1" stop-color="white" stop-opacity="0"/>
</linearGradient>
</defs>
</svg>
