<svg width="56" height="56" viewBox="0 0 56 56" fill="none" xmlns="http://www.w3.org/2000/svg">
<path d="M30.3333 4.66675V14.0001C30.3333 19.1547 34.512 23.3334 39.6667 23.3334L49 23.3334M7 14.0001L7 42.0001C7 47.1547 11.1787 51.3334 16.3333 51.3334H39.6667C44.8213 51.3334 49 47.1547 49 42.0001V27.1994C49 24.7241 48.0167 22.3501 46.2663 20.5997L33.067 7.40042C31.3167 5.65008 28.9427 4.66675 26.4673 4.66675L16.3333 4.66675C11.1787 4.66675 7 8.84542 7 14.0001Z" stroke="#F44336" stroke-width="2.5" stroke-linejoin="round"/>
<path d="M15.0195 42V31.9785H18.2666C19.4971 31.9785 20.2992 32.0286 20.6729 32.1289C21.2471 32.2793 21.7279 32.6074 22.1152 33.1133C22.5026 33.6146 22.6963 34.264 22.6963 35.0615C22.6963 35.6768 22.5846 36.194 22.3613 36.6133C22.138 37.0326 21.8532 37.363 21.5068 37.6045C21.165 37.8415 20.8164 37.9987 20.4609 38.0762C19.9779 38.1719 19.2783 38.2197 18.3623 38.2197H17.043V42H15.0195ZM17.043 33.6738V36.5176H18.1504C18.9479 36.5176 19.4811 36.4652 19.75 36.3604C20.0189 36.2555 20.2285 36.0915 20.3789 35.8682C20.5339 35.6449 20.6113 35.3851 20.6113 35.0889C20.6113 34.7243 20.5042 34.4235 20.29 34.1865C20.0758 33.9495 19.8047 33.8014 19.4766 33.7422C19.235 33.6966 18.7497 33.6738 18.0205 33.6738H17.043Z" fill="#F44336"/>
<path d="M24.3506 31.9785H28.0488C28.8828 31.9785 29.5186 32.0423 29.9561 32.1699C30.5439 32.3431 31.0475 32.6507 31.4668 33.0928C31.8861 33.5348 32.2051 34.0771 32.4238 34.7197C32.6426 35.3577 32.752 36.1462 32.752 37.085C32.752 37.9098 32.6494 38.6208 32.4443 39.2178C32.1937 39.9469 31.8359 40.5371 31.3711 40.9883C31.0202 41.3301 30.5462 41.5967 29.9492 41.7881C29.5026 41.9294 28.9056 42 28.1582 42H24.3506V31.9785ZM26.374 33.6738V40.3115H27.8848C28.4499 40.3115 28.8577 40.2796 29.1084 40.2158C29.4365 40.1338 29.7077 39.9948 29.9219 39.7988C30.1406 39.6029 30.3184 39.2816 30.4551 38.835C30.5918 38.3838 30.6602 37.7708 30.6602 36.9961C30.6602 36.2214 30.5918 35.6266 30.4551 35.2119C30.3184 34.7972 30.127 34.4736 29.8809 34.2412C29.6348 34.0088 29.3226 33.8516 28.9443 33.7695C28.6618 33.7057 28.1081 33.6738 27.2832 33.6738H26.374Z" fill="#F44336"/>
<path d="M34.4883 42V31.9785H41.3584V33.6738H36.5117V36.0459H40.6953V37.7412H36.5117V42H34.4883Z" fill="#F44336"/>
</svg>
