<svg width="25" height="24" viewBox="0 0 25 24" fill="none" xmlns="http://www.w3.org/2000/svg">
<path d="M9.91006 10.87C9.81006 10.86 9.69006 10.86 9.58006 10.87C7.20006 10.79 5.31006 8.84 5.31006 6.44C5.31006 3.99 7.29006 2 9.75006 2C12.2001 2 14.1901 3.99 14.1901 6.44C14.1801 8.84 12.2901 10.79 9.91006 10.87Z" stroke="#292D32" stroke-width="1.5" stroke-linecap="round" stroke-linejoin="round"/>
<path d="M17.1598 4C19.0998 4 20.6598 5.57 20.6598 7.5C20.6598 9.39 19.1598 10.93 17.2898 11C17.2098 10.99 17.1198 10.99 17.0298 11" stroke="#292D32" stroke-width="1.5" stroke-linecap="round" stroke-linejoin="round"/>
<path d="M4.91021 14.56C2.49021 16.18 2.49021 18.82 4.91021 20.43C7.66021 22.27 12.1702 22.27 14.9202 20.43C17.3402 18.81 17.3402 16.17 14.9202 14.56C12.1802 12.73 7.67021 12.73 4.91021 14.56Z" stroke="#292D32" stroke-width="1.5" stroke-linecap="round" stroke-linejoin="round"/>
<path d="M19.0898 20C19.8098 19.85 20.4898 19.56 21.0498 19.13C22.6098 17.96 22.6098 16.03 21.0498 14.86C20.4998 14.44 19.8298 14.16 19.1198 14" stroke="#292D32" stroke-width="1.5" stroke-linecap="round" stroke-linejoin="round"/>
</svg>
