<svg width="1920" height="906" viewBox="0 0 1920 906" fill="none" xmlns="http://www.w3.org/2000/svg">
<path d="M-39.7991 866.095C530.425 694.074 717.665 537.534 781.307 424.667C852.326 298.703 801.208 170.699 886.987 156.069C941.912 146.7 1013.66 190.543 1148.62 288.329C1557.88 584.852 1573.09 670.618 1738.73 680.734C1970.77 694.928 2101.24 536.368 2454.53 513.042C2714.01 495.915 2930.02 562.52 3076.94 625.112" stroke="#D4B67F" stroke-opacity="0.15" stroke-miterlimit="10"/>
<path d="M-56.1489 854.286C498.393 686.194 697.457 532.717 767.351 426.143C845.456 307.044 795.236 185.753 880.352 173.445C935.074 165.53 1005.53 208.64 1135.99 303.091C1532.46 590.08 1550.6 676.729 1715.02 685.828C1948.46 698.324 2072.06 529.48 2428.96 500.503C2436.75 499.872 2444.41 499.296 2452.09 498.814C2705.67 482.977 2924.84 549.404 3074.87 611.327" stroke="#D4B67F" stroke-opacity="0.15" stroke-miterlimit="10"/>
<path d="M-70.5238 841.326C467.567 677.452 678.055 527.545 754.296 427.187C839.271 315.325 790.162 200.785 874.477 190.81C928.941 184.362 998.02 226.665 1123.77 317.613C1506.84 594.551 1527.84 682.215 1690.99 689.986C1925.33 701.15 2042.15 521.852 2402.14 487.35C2410.04 486.592 2417.91 485.836 2425.8 485.263C2683.24 466.573 2913.48 533.752 3070.68 596.711" stroke="#D4B67F" stroke-opacity="0.15" stroke-miterlimit="10"/>
<path d="M-82.7051 830.116C438.849 670.254 660.341 524.075 743.139 429.487C834.688 324.896 786.971 216.749 870.416 209.095C924.631 204.12 992.243 245.67 1113.32 333.26C1482.97 600.63 1506.88 689.239 1668.62 695.881C1903.89 705.541 2013.81 515.722 2376.74 475.771C2384.8 474.883 2392.85 474.007 2400.88 473.286C2661.94 449.885 2903.33 519.806 3067.66 583.902" stroke="#D4B67F" stroke-opacity="0.15" stroke-miterlimit="10"/>
<path d="M-99.0458 818.427C406.787 662.518 639.315 520.297 729.168 431.116C827.062 333.955 781.101 231.99 863.782 226.633C917.845 223.127 984.111 263.929 1100.68 348.174C1457.46 605.995 1484.32 695.575 1644.89 701.081C1881.54 709.195 1984.72 508.747 2351.14 463.354C2359.36 462.343 2367.6 461.331 2375.87 460.467C2641.02 433.315 2893.87 504.987 3065.6 570.235" stroke="#D4B67F" stroke-opacity="0.15" stroke-miterlimit="10"/>
<path d="M-114.44 805.614C375.338 653.707 618.272 515.852 715.629 431.741C819.223 342.235 775.604 246.289 857.484 243.216C911.377 241.196 976.228 281.227 1088.21 362.115C1431.91 610.335 1461.71 700.848 1621 705.242C1858.85 711.798 1955.25 500.723 2324.91 449.999C2333.31 448.846 2341.71 447.684 2350.19 446.71C2619.25 415.854 2883.46 489.226 3062.44 555.613" stroke="#D4B67F" stroke-opacity="0.15" stroke-miterlimit="10"/>
<path d="M-128.668 794.599C344.715 646.512 597.258 513.216 702.639 433.686C811.055 351.861 770.674 261.636 851.615 260.85C905.324 260.327 968.719 299.676 1076.05 377.341C1406.5 616.432 1439.26 708.033 1597.16 711.358C1836.12 716.391 1925.58 494.289 2298.25 438.248C2306.84 436.957 2315.38 435.654 2324.04 434.559C2596.84 400.014 2872.24 475.249 3058.39 542.909" stroke="#D4B67F" stroke-opacity="0.15" stroke-miterlimit="10"/>
<path d="M-142.969 782.622C314.358 638.601 549.411 500.944 690.189 435.335C772.389 354.803 766.337 277.108 846.413 278.571C899.971 279.551 961.937 318.072 1064.68 392.356C1382.02 621.68 1417.74 714.129 1574.34 716.361C1814.55 719.783 1897.18 487.104 2273.1 425.844C2281.84 424.42 2290.58 422.977 2299.45 421.752C2576.17 383.567 2862.93 460.38 3056.33 529.137" stroke="#D4B67F" stroke-opacity="0.15" stroke-miterlimit="10"/>
<path d="M-159.316 770.848C281.963 630.913 523.887 496.05 675.701 437.235C759.516 363.25 759.967 292.865 839.177 296.555C892.594 299.042 953.113 336.719 1051.26 407.564C1355.46 627.078 1394.2 720.333 1549.49 721.483C1790.95 723.27 1866.72 480.06 2245.92 413.646C2254.82 412.086 2263.74 410.504 2272.82 409.155C2553.46 367.367 2851.5 445.718 3052.21 515.533" stroke="#D4B67F" stroke-opacity="0.15" stroke-miterlimit="10"/>
<path d="M-173.626 758.749C251.716 622.716 500.581 490.454 663.48 438.343C748.93 370.784 755.89 307.611 834.258 313.521C887.543 317.537 946.655 354.441 1040.24 421.98C1331.49 632.087 1373.19 726.281 1527.21 726.38C1770.03 726.541 1838.9 472.39 2221.52 400.79C2230.59 399.094 2239.69 397.376 2248.97 395.897C2533.63 350.486 2843.1 430.507 3051.16 501.52" stroke="#D4B67F" stroke-opacity="0.15" stroke-miterlimit="10"/>
<path d="M-188.942 746.975C220.214 615.136 475.871 485.779 649.76 440.482C736.8 379.513 750.259 323.724 827.731 331.805C880.851 337.344 938.519 373.353 1027.48 437.386C1305.5 637.478 1350.18 732.365 1502.82 731.41C1746.84 729.883 1808.78 465.449 2194.6 388.845C2203.85 387.009 2213.13 385.166 2222.59 383.556C2511.12 334.626 2831.79 416.037 3047.05 488.024" stroke="#D4B67F" stroke-opacity="0.15" stroke-miterlimit="10"/>
<path d="M-203.194 735.643C189.855 607.618 452.407 480.742 637.323 442.146C725.966 387.558 745.898 338.961 822.51 349.255C875.467 356.364 931.728 391.608 1016.1 452.43C1281.06 643.337 1328.75 739.253 1480.08 737.291C1725.39 734.117 1780.31 458.424 2169.47 376.655C2178.89 374.678 2188.31 372.701 2198.01 370.974C2490.49 318.43 2822.48 401.596 3045.04 474.883" stroke="#D4B67F" stroke-opacity="0.15" stroke-miterlimit="10"/>
<path d="M-219.616 722.876C157.367 598.958 426.76 474.899 622.743 443.05C713 394.994 739.391 353.757 815.198 366.187C867.973 374.843 922.825 409.201 1002.6 466.588C1254.47 647.662 1305.12 744.293 1455.1 741.314C1701.7 736.414 1749.61 450.263 2142.19 363.534C2151.76 361.418 2161.39 359.312 2171.3 357.441C2467.76 301.41 2811.01 385.96 3040.85 460.292" stroke="#D4B67F" stroke-opacity="0.15" stroke-miterlimit="10"/>
<path d="M-233.88 711.38C126.63 591.261 402.608 469.675 609.447 444.554C701.211 402.897 734.003 368.892 808.95 383.527C861.489 393.788 914.911 427.382 990.039 481.562C1228.6 653.528 1282.25 751.227 1430.76 747.272C1678.43 740.69 1719.15 443.053 2114.77 351.221C2124.51 348.959 2134.31 346.719 2144.38 344.719C2444.54 285.09 2798.76 371.479 3035.74 447.163" stroke="#D4B67F" stroke-opacity="0.15" stroke-miterlimit="10"/>
<path d="M-249.199 699.58C95.4941 583.588 378.546 464.842 596.563 446.461C690.002 411.335 729.236 384.707 803.45 401.459C855.805 413.269 907.893 445.936 978.424 496.664C1204 658.72 1260.68 757.042 1407.94 752.095C1657.07 743.729 1690.77 435.819 2090.12 339.061C2100.03 336.663 2110.02 334.298 2120.29 332.167C2424.67 269.071 2790.35 356.773 3034.71 433.426" stroke="#D4B67F" stroke-opacity="0.15" stroke-miterlimit="10"/>
<path d="M-262.462 687.692C65.943 575.859 355.69 459.981 584.607 448.337C679.607 419.729 725.195 400.463 798.615 419.301C850.705 432.666 901.403 464.41 967.338 511.692C1179.65 663.877 1239.29 762.813 1385.13 756.899C1635.4 746.75 1661.95 428.608 2064.57 327.064C2074.63 324.528 2084.81 322.038 2095.31 319.779C2403.48 253.256 2780.16 342.268 3031.63 419.884" stroke="#D4B67F" stroke-opacity="0.15" stroke-miterlimit="10"/>
<path d="M-277.757 676.202C34.6612 568.172 331.348 454.789 571.389 449.874C667.973 427.689 719.983 415.739 792.71 436.754C844.561 451.741 893.958 482.685 955.319 526.708C1154.62 669.658 1217.29 769.589 1361.85 762.725C1613.49 750.781 1632.82 421.202 2039.1 314.536C2049.33 311.85 2059.69 309.233 2070.36 306.841C2382.7 236.764 2770.76 327.504 3029.59 406.467" stroke="#D4B67F" stroke-opacity="0.15" stroke-miterlimit="10"/>
<path d="M-292.112 663.497C3.82953 559.307 306.99 448.435 557.773 450.342C655.888 434.629 714.122 430.015 786.057 453.226C837.591 469.833 885.626 500.001 942.328 540.788C1128.33 674.491 1193.95 775.43 1337 767.648C1589.63 753.92 1601.64 412.837 2010.98 301.114C2021.36 298.28 2031.9 295.535 2042.74 293.008C2358.76 219.353 2757.53 311.882 3023.37 392.235" stroke="#D4B67F" stroke-opacity="0.15" stroke-miterlimit="10"/>
<path d="M-73.9997 573C213.5 478.5 295 475 543.797 451.96C641.68 436.691 708.169 445.489 779.476 470.881C830.761 489.121 877.534 518.47 929.682 555.968C1102.7 680.318 1171.36 782.197 1313.18 773.483C1567.23 757.87 1571.97 405.362 1985.19 288.533C1995.72 285.556 2006.48 282.678 2017.51 280.015C2337.8 202.77 2747.99 296.992 3021.32 378.643" stroke="#D4B67F" stroke-opacity="0.15" stroke-miterlimit="10"/>
<path d="M-322.719 640.282C-58.8257 544.113 253.025 450.136 531.109 454.053C631.424 455.469 703.326 461.415 773.957 488.866C824.922 508.652 870.389 537.044 917.924 571.09C1077.77 685.526 1149.37 787.896 1289.83 778.265C1545.07 760.764 1542.58 398.322 1959.34 276.796C1970.05 273.678 1980.98 270.692 1992.21 267.893C2316.77 187.59 2737.74 282.722 3018.25 365.282" stroke="#D4B67F" stroke-opacity="0.15" stroke-miterlimit="10"/>
<path d="M-338.056 628.24C-90.1057 536.093 230.555 439.123 518.15 455.46C620.163 461.259 698.356 476.638 768.396 506.191C819.072 527.559 863.304 555.058 906.261 585.721C1053.08 690.499 1127.72 793.81 1266.93 782.997C1523.54 763.064 1513.51 390.328 1934.56 264.188C1945.42 260.918 1956.56 257.817 1967.99 254.885C2296.76 170.993 2729.25 267.638 3017.2 351.268" stroke="#D4B67F" stroke-opacity="0.15" stroke-miterlimit="10"/>
<path d="M-352.366 616.136C-120.585 528.029 210.263 428.041 505.408 456.856C950.343 500.307 1011.59 806.984 1243.6 787.751C1508.09 765.828 1483.26 362.74 1942.65 241.98C2275.32 154.533 2718.99 252.712 3014.1 337.436" stroke="#D4B67F" stroke-opacity="0.15" stroke-miterlimit="10"/>
</svg>
