<svg width="24" height="24" viewBox="0 0 24 24" fill="none" xmlns="http://www.w3.org/2000/svg">
<path d="M9 13.7336L10.2929 12.4407C10.6834 12.0502 10.6834 11.4171 10.2929 11.0265L9 9.73364M10 11.7336L4 11.7336M20 6.73367L20 16.7337M8 6.73367C8 5.6291 8.89543 4.73367 10 4.73367L14 4.73367M8 16.7337C8 17.8382 8.89543 18.7337 10 18.7337L14 18.7337M19.1094 4.13994L17.1094 2.8066C15.7803 1.92053 14 2.87331 14 4.4707L14 18.9966C14 20.594 15.7803 21.5468 17.1094 20.6607L19.1094 19.3274C19.6658 18.9565 20 18.332 20 17.6633L20 5.80404C20 5.13533 19.6658 4.51087 19.1094 4.13994Z" stroke="#100E24" stroke-width="1.5" stroke-linecap="round"/>
</svg>
