<svg width="199" height="32" viewBox="0 0 199 32" fill="none" xmlns="http://www.w3.org/2000/svg">
<path d="M25.8997 21.8207C24.7349 23.8692 22.4682 25.7565 21.6917 26.4712C20.9152 27.186 16.835 30.2108 16.4468 30.4397C16.0585 30.6686 14.0196 31.9346 13.7918 32H13.2082C12.9827 31.9346 10.9415 30.6663 10.5532 30.4397C10.165 30.2131 6.08716 27.1883 5.30833 26.4712C4.53182 25.7565 2.26508 23.8692 1.10032 21.8207C-0.0644393 19.7723 0.000658023 17.2029 0.000658023 17.2029V0H26.9993V17.2029C26.9993 17.2029 27.0644 19.7723 25.8997 21.8207Z" fill="#E8CA93"/>
<path d="M25.8997 21.8207C24.7349 23.8692 22.4682 25.7565 21.6917 26.4712C20.9152 27.186 16.835 30.2108 16.4468 30.4397C16.0585 30.6686 14.0196 31.9346 13.7918 32H13.2082C12.9827 31.9346 10.9415 30.6663 10.5532 30.4397C10.165 30.2131 6.08716 27.1883 5.30833 26.4712C4.53182 25.7565 2.26508 23.8692 1.10032 21.8207C-0.0644393 19.7723 0.000658023 17.2029 0.000658023 17.2029V0H26.9993V17.2029C26.9993 17.2029 27.0644 19.7723 25.8997 21.8207Z" fill="url(#paint0_linear_892_5339)" fill-opacity="0.1"/>
<path d="M12.5181 9.74109L5.05527 23.5431H2.96289L12.5181 6.21875L18.1141 16.5569L10.6512 16.6129L12.46 13.2611L13.3086 14.9101H15.3428L12.5181 9.74109Z" fill="white"/>
<path d="M19.0743 18.2588L23.7682 27.1767L22.5244 28.3703L18.1141 20.076L10.7071 20.02L8.95644 23.5423H6.69434L9.69109 18.2588H19.0743Z" fill="white"/>
<path d="M26.1975 24.3962L24.9561 25.8724L13.3643 4.40199L14.4965 2.52637L26.1975 24.3962Z" fill="white"/>
<path d="M39.8 9.648V16.368H44.888C49.328 16.368 49.304 9.648 44.888 9.648H39.8ZM44.888 18.84H39.8V24H37.112V7.2C39.68 7.2 42.32 7.176 44.888 7.176C52.904 7.176 52.928 18.792 44.888 18.84ZM53.1566 12.168H55.4606L55.6286 13.728C56.4926 12.216 57.8366 11.904 59.1086 11.904C60.2606 11.904 61.3646 12.312 62.0366 12.912L60.9086 15.072C60.3086 14.592 59.7326 14.352 58.8206 14.352C57.1166 14.352 55.6286 15.408 55.6286 17.592V24H53.1566V12.168ZM68.7508 11.928C72.3988 11.928 74.8948 14.616 74.8948 18.096C74.8948 21.6 72.4708 24.24 68.7508 24.24C65.0548 24.24 62.6548 21.6 62.6548 18.096C62.6548 14.616 65.0788 11.928 68.7508 11.928ZM68.7508 14.208C66.4948 14.208 65.1268 16.008 65.1268 18.096C65.1268 20.208 66.4948 21.936 68.7508 21.936C71.0308 21.936 72.3988 20.208 72.3988 18.096C72.3988 16.008 70.9108 14.208 68.7508 14.208ZM90.7897 24L89.1817 20.472H80.0857L78.5017 24H75.6457L83.1817 7.2H86.1097L93.6457 24H90.7897ZM88.1977 18.024L84.6457 10.032L81.0937 18.024H88.1977ZM100.629 14.232C98.5411 14.232 96.8851 15.648 96.8851 18.072C96.8851 20.448 98.5411 21.936 100.629 21.936C102.693 21.936 104.397 20.4 104.397 18.072C104.397 15.792 102.693 14.232 100.629 14.232ZM104.565 7.224H107.037V24H104.709L104.565 22.128C103.629 23.64 102.045 24.24 100.461 24.24C97.0291 24.24 94.4131 21.984 94.4131 18.072C94.4131 14.04 96.9811 11.904 100.413 11.904C101.853 11.904 103.797 12.624 104.565 14.016V7.224ZM119.199 12.144H121.911L116.895 24.048H114.183L109.143 12.144H111.879L113.463 15.96L115.551 21.456L117.423 16.44L119.199 12.144ZM128.915 11.928C132.563 11.928 135.059 14.616 135.059 18.096C135.059 21.6 132.635 24.24 128.915 24.24C125.219 24.24 122.819 21.6 122.819 18.096C122.819 14.616 125.243 11.928 128.915 11.928ZM128.915 14.208C126.659 14.208 125.291 16.008 125.291 18.096C125.291 20.208 126.659 21.936 128.915 21.936C131.195 21.936 132.563 20.208 132.563 18.096C132.563 16.008 131.075 14.208 128.915 14.208ZM146 20.808L147.68 22.464C146.36 23.76 144.896 24.312 143.192 24.312C139.784 24.312 136.952 22.176 136.952 18.096C136.952 14.016 139.76 11.88 143.192 11.88C144.824 11.88 146.192 12.384 147.464 13.632L145.88 15.288C145.136 14.568 144.152 14.232 143.216 14.232C141.08 14.232 139.424 15.744 139.424 18.096C139.424 20.592 141.152 21.912 143.192 21.912C144.2 21.912 145.232 21.6 146 20.808ZM159.034 14.04L159.106 12.168H161.506C161.506 16.104 161.506 20.064 161.506 24H159.154L159.034 22.08C158.242 23.592 156.418 24.312 154.954 24.312C151.498 24.336 148.882 22.104 148.882 18.072C148.882 14.112 151.594 11.904 155.002 11.904C156.682 11.904 158.29 12.696 159.034 14.04ZM155.194 14.16C153.082 14.16 151.354 15.648 151.354 18.072C151.354 20.52 153.082 22.008 155.194 22.008C160.306 22.008 160.306 14.16 155.194 14.16ZM166.18 9.024L168.676 8.76V12.192H172.132V14.328H168.652V19.968C168.652 21.216 169.204 21.912 170.356 21.912C170.836 21.912 171.388 21.744 171.868 21.504L172.588 23.616C171.772 23.976 171.052 24.144 170.212 24.144C167.644 24.216 166.18 22.752 166.18 19.968V14.328H163.9V12.192H166.18V9.024ZM186.081 19.008H176.481C176.697 20.808 178.185 21.984 180.345 21.984C181.545 21.984 183.057 21.528 183.777 20.712L185.385 22.272C184.161 23.616 182.121 24.288 180.297 24.288C176.409 24.288 173.913 21.816 173.913 18.024C173.913 14.424 176.433 11.856 180.129 11.856C183.945 11.856 186.537 14.184 186.081 19.008ZM176.529 16.92H183.705C183.561 15.048 182.193 14.064 180.201 14.064C178.401 14.064 176.913 15.048 176.529 16.92ZM197.554 13.44L196.162 15.072C195.226 14.208 194.218 13.968 193.042 13.968C191.53 13.944 190.522 14.448 190.522 15.384C190.546 16.368 191.578 16.752 193.09 16.896C195.274 17.088 198.13 17.568 198.106 20.616C198.082 22.824 196.138 24.36 193.066 24.36C191.146 24.36 189.226 23.928 187.666 22.176L188.962 20.424C190.066 21.648 191.722 22.152 193.114 22.176C194.29 22.176 195.61 21.744 195.634 20.64C195.658 19.584 194.65 19.176 192.898 19.008C190.666 18.792 188.098 18.072 188.074 15.456C188.074 12.84 190.786 11.856 192.994 11.856C194.818 11.856 196.234 12.264 197.554 13.44Z" fill="#0F0D0B"/>
<defs>
<linearGradient id="paint0_linear_892_5339" x1="13.5" y1="13.1148" x2="13.5" y2="32" gradientUnits="userSpaceOnUse">
<stop stop-color="white"/>
<stop offset="1" stop-color="white" stop-opacity="0"/>
</linearGradient>
</defs>
</svg>
