<svg width="32" height="32" viewBox="0 0 32 32" fill="none" xmlns="http://www.w3.org/2000/svg">
<path d="M5.94058 18.5067L5.36901 18.0211H5.36901L5.94058 18.5067ZM7.11293 15.7847L6.3677 15.7002L7.11293 15.7847ZM24.8869 15.7847L25.6321 15.7002V15.7002L24.8869 15.7847ZM26.0593 18.5067L26.6308 18.0211L26.0593 18.5067ZM24.4271 11.7254L23.6818 11.8098L24.4271 11.7254ZM7.57277 11.7254L8.318 11.8098L7.57277 11.7254ZM20.7022 25.5965C20.8476 25.2087 20.651 24.7764 20.2631 24.631C19.8753 24.4857 19.443 24.6823 19.2976 25.0701L20.7022 25.5965ZM12.7022 25.0701C12.5569 24.6823 12.1246 24.4857 11.7367 24.631C11.3488 24.7764 11.1523 25.2087 11.2976 25.5965L12.7022 25.0701ZM24.2264 21.9167H7.77343V23.4167H24.2264V21.9167ZM23.6818 11.8098L24.1417 15.8691L25.6321 15.7002L25.1723 11.641L23.6818 11.8098ZM7.85816 15.8691L8.318 11.8098L6.82753 11.641L6.3677 15.7002L7.85816 15.8691ZM6.51214 18.9923C7.25913 18.1131 7.72736 17.0238 7.85816 15.8691L6.3677 15.7002C6.26998 16.5628 5.92061 17.3719 5.36901 18.0211L6.51214 18.9923ZM24.1417 15.8691C24.2725 17.0238 24.7407 18.1131 25.4877 18.9923L26.6308 18.0211C26.0792 17.3719 25.7299 16.5628 25.6321 15.7002L24.1417 15.8691ZM7.77343 21.9167C6.36353 21.9167 5.51987 20.1603 6.51214 18.9923L5.36901 18.0211C3.60553 20.0968 4.99847 23.4167 7.77343 23.4167V21.9167ZM24.2264 23.4167C27.0014 23.4167 28.3943 20.0968 26.6308 18.0211L25.4877 18.9923C26.48 20.1603 25.6363 21.9167 24.2264 21.9167V23.4167ZM25.1723 11.641C24.6324 6.87501 20.7042 3.25 15.9999 3.25V4.75C19.9065 4.75 23.2239 7.76727 23.6818 11.8098L25.1723 11.641ZM8.318 11.8098C8.77594 7.76727 12.0933 4.75 15.9999 4.75V3.25C11.2957 3.25 7.36742 6.87501 6.82753 11.641L8.318 11.8098ZM19.2976 25.0701C18.8293 26.3196 17.5462 27.25 15.9999 27.25V28.75C18.1471 28.75 20.006 27.4542 20.7022 25.5965L19.2976 25.0701ZM15.9999 27.25C14.4537 27.25 13.1705 26.3196 12.7022 25.0701L11.2976 25.5965C11.9938 27.4542 13.8528 28.75 15.9999 28.75V27.25Z" fill="#100E24"/>
</svg>
