<svg width="24" height="18" viewBox="0 0 24 18" fill="none" xmlns="http://www.w3.org/2000/svg">
<g clip-path="url(#clip0_9_4105)">
<path d="M0 12H24V18H0V12Z" fill="#1EB53A"/>
<path d="M0 0H24V6H0V0Z" fill="#0099B5"/>
<path d="M0 5.75977H24V12.2398H0V5.75977Z" fill="#CE1126"/>
<path d="M0 6.12012H24V11.8801H0V6.12012Z" fill="white"/>
<path d="M5.03988 5.03973C6.23282 5.03973 7.19988 4.07266 7.19988 2.87973C7.19988 1.68679 6.23282 0.719727 5.03988 0.719727C3.84695 0.719727 2.87988 1.68679 2.87988 2.87973C2.87988 4.07266 3.84695 5.03973 5.03988 5.03973Z" fill="white"/>
<path d="M5.7601 5.03973C6.95303 5.03973 7.9201 4.07266 7.9201 2.87973C7.9201 1.68679 6.95303 0.719727 5.7601 0.719727C4.56716 0.719727 3.6001 1.68679 3.6001 2.87973C3.6001 4.07266 4.56716 5.03973 5.7601 5.03973Z" fill="#0099B5"/>
<path d="M9.79085 4.17676L9.65405 4.58716L9.86285 4.65916" fill="white"/>
<path d="M9.79069 4.17676L9.92749 4.58716L9.71869 4.65916" fill="white"/>
<path d="M10.2017 4.47483L9.76911 4.47155L9.76516 4.69238" fill="white"/>
<path d="M10.2016 4.47439L9.85358 4.73131L9.72058 4.55498" fill="white"/>
<path d="M9.37919 4.47536L9.72723 4.73229L9.86023 4.55596" fill="white"/>
<path d="M9.37911 4.47581L9.8117 4.47252L9.81565 4.69335" fill="white"/>
<path d="M10.0444 4.95834L9.9138 4.54591L9.70256 4.61039" fill="white"/>
<path d="M10.044 4.95768L9.69212 4.70607L9.81872 4.52509" fill="white"/>
<path d="M9.53654 4.95768L9.88844 4.70607L9.76184 4.52509" fill="white"/>
<path d="M9.53645 4.95736L9.66701 4.54493L9.87825 4.60941" fill="white"/>
<path d="M9.79085 2.44922L9.65405 2.85962L9.86285 2.93162" fill="white"/>
<path d="M9.79069 2.44922L9.92749 2.85962L9.71869 2.93162" fill="white"/>
<path d="M10.2017 2.74729L9.76911 2.74401L9.76516 2.96484" fill="white"/>
<path d="M10.2016 2.74685L9.85358 3.00377L9.72058 2.82744" fill="white"/>
<path d="M9.37919 2.74783L9.72723 3.00475L9.86023 2.82842" fill="white"/>
<path d="M9.37911 2.74827L9.8117 2.74498L9.81565 2.96581" fill="white"/>
<path d="M10.0444 3.2308L9.9138 2.81837L9.70256 2.88285" fill="white"/>
<path d="M10.0443 3.23111L9.69237 2.9795L9.81897 2.79852" fill="white"/>
<path d="M9.53654 3.23014L9.88844 2.97853L9.76184 2.79755" fill="white"/>
<path d="M9.53645 3.22982L9.66701 2.81739L9.87825 2.88187" fill="white"/>
<path d="M9.79085 0.720703L9.65405 1.1311L9.86285 1.2031" fill="white"/>
<path d="M9.79069 0.720703L9.92749 1.1311L9.71869 1.2031" fill="white"/>
<path d="M10.2017 1.01975L9.76911 1.01647L9.76516 1.2373" fill="white"/>
<path d="M10.2016 1.01931L9.85358 1.27623L9.72058 1.0999" fill="white"/>
<path d="M9.37943 1.01931L9.72747 1.27623L9.86047 1.0999" fill="white"/>
<path d="M9.37936 1.01975L9.81194 1.01647L9.8159 1.2373" fill="white"/>
<path d="M10.0444 1.50228L9.9138 1.08985L9.70256 1.15433" fill="white"/>
<path d="M10.0443 1.5026L9.69237 1.25099L9.81897 1.07001" fill="white"/>
<path d="M9.53654 1.50162L9.88844 1.25001L9.76184 1.06903" fill="white"/>
<path d="M9.5367 1.50131L9.66725 1.08888L9.8785 1.15336" fill="white"/>
<path d="M11.5189 4.17676L11.3821 4.58716L11.5909 4.65916" fill="white"/>
<path d="M11.5187 4.17676L11.6555 4.58716L11.4467 4.65916" fill="white"/>
<path d="M11.9295 4.47483L11.4969 4.47155L11.4929 4.69238" fill="white"/>
<path d="M11.9294 4.47439L11.5814 4.73131L11.4484 4.55498" fill="white"/>
<path d="M11.1075 4.47536L11.4555 4.73229L11.5885 4.55596" fill="white"/>
<path d="M11.1074 4.47581L11.54 4.47252L11.5439 4.69335" fill="white"/>
<path d="M11.7724 4.95834L11.6418 4.54591L11.4306 4.61039" fill="white"/>
<path d="M11.7721 4.95865L11.4201 4.70704L11.5468 4.52606" fill="white"/>
<path d="M11.2646 4.95768L11.6165 4.70607L11.4899 4.52509" fill="white"/>
<path d="M11.2645 4.95736L11.395 4.54493L11.6063 4.60941" fill="white"/>
<path d="M11.5191 2.44922L11.3823 2.85962L11.5911 2.93162" fill="white"/>
<path d="M11.519 2.44922L11.6558 2.85962L11.447 2.93162" fill="white"/>
<path d="M11.93 2.74729L11.4974 2.74401L11.4934 2.96484" fill="white"/>
<path d="M11.9299 2.74685L11.5819 3.00377L11.4489 2.82744" fill="white"/>
<path d="M11.1075 2.74783L11.4555 3.00475L11.5885 2.82842" fill="white"/>
<path d="M11.1074 2.74827L11.54 2.74498L11.5439 2.96581" fill="white"/>
<path d="M11.7726 3.2308L11.6421 2.81837L11.4308 2.88285" fill="white"/>
<path d="M11.7728 3.23111L11.4209 2.9795L11.5475 2.79852" fill="white"/>
<path d="M11.2648 3.23014L11.6167 2.97853L11.4901 2.79755" fill="white"/>
<path d="M11.2645 3.22982L11.395 2.81739L11.6063 2.88187" fill="white"/>
<path d="M11.5191 0.720703L11.3823 1.1311L11.5911 1.2031" fill="white"/>
<path d="M11.519 0.720703L11.6558 1.1311L11.447 1.2031" fill="white"/>
<path d="M11.93 1.01975L11.4974 1.01647L11.4934 1.2373" fill="white"/>
<path d="M11.9299 1.01931L11.5819 1.27623L11.4489 1.0999" fill="white"/>
<path d="M11.1077 1.01931L11.4557 1.27623L11.5887 1.0999" fill="white"/>
<path d="M11.1076 1.01975L11.5402 1.01647L11.5442 1.2373" fill="white"/>
<path d="M11.7729 1.50228L11.6423 1.08985L11.4311 1.15433" fill="white"/>
<path d="M11.773 1.50162L11.4211 1.25001L11.5477 1.06903" fill="white"/>
<path d="M11.2648 1.5026L11.6167 1.25099L11.4901 1.07001" fill="white"/>
<path d="M11.2647 1.50228L11.3953 1.08985L11.6065 1.15433" fill="white"/>
<path d="M13.2476 4.17676L13.1108 4.58716L13.3196 4.65916" fill="white"/>
<path d="M13.2477 4.17676L13.3845 4.58716L13.1757 4.65916" fill="white"/>
<path d="M13.6582 4.47483L13.2257 4.47155L13.2217 4.69238" fill="white"/>
<path d="M13.6582 4.47439L13.3101 4.73131L13.1771 4.55498" fill="white"/>
<path d="M12.8367 4.47536L13.1847 4.73229L13.3177 4.55596" fill="white"/>
<path d="M12.8371 4.47581L13.2697 4.47252L13.2737 4.69335" fill="white"/>
<path d="M13.5024 4.95834L13.3718 4.54591L13.1606 4.61039" fill="white"/>
<path d="M13.5023 4.95865L13.1504 4.70704L13.277 4.52606" fill="white"/>
<path d="M12.9941 4.95865L13.346 4.70704L13.2194 4.52606" fill="white"/>
<path d="M12.994 4.95834L13.1245 4.54591L13.3358 4.61039" fill="white"/>
<path d="M13.2476 2.44922L13.1108 2.85962L13.3196 2.93162" fill="white"/>
<path d="M13.2477 2.44922L13.3845 2.85962L13.1757 2.93162" fill="white"/>
<path d="M13.6587 2.74729L13.2261 2.74401L13.2222 2.96484" fill="white"/>
<path d="M13.6587 2.74685L13.3106 3.00377L13.1776 2.82744" fill="white"/>
<path d="M12.8367 2.74783L13.1847 3.00475L13.3177 2.82842" fill="white"/>
<path d="M12.8366 2.74827L13.2692 2.74498L13.2732 2.96581" fill="white"/>
<path d="M13.5024 3.2308L13.3718 2.81837L13.1606 2.88285" fill="white"/>
<path d="M13.5023 3.23111L13.1504 2.9795L13.277 2.79852" fill="white"/>
<path d="M12.9943 3.23111L13.3462 2.9795L13.2196 2.79852" fill="white"/>
<path d="M12.9942 3.2308L13.1248 2.81837L13.336 2.88285" fill="white"/>
<path d="M13.2476 0.720703L13.1108 1.1311L13.3196 1.2031" fill="white"/>
<path d="M13.2477 0.720703L13.3845 1.1311L13.1757 1.2031" fill="white"/>
<path d="M13.6582 1.01878L13.2257 1.01549L13.2217 1.23632" fill="white"/>
<path d="M13.6582 1.01833L13.3101 1.27526L13.1771 1.09893" fill="white"/>
<path d="M12.8367 1.01931L13.1847 1.27623L13.3177 1.0999" fill="white"/>
<path d="M12.8371 1.01975L13.2697 1.01647L13.2737 1.2373" fill="white"/>
<path d="M13.5029 1.50228L13.3723 1.08985L13.1611 1.15433" fill="white"/>
<path d="M13.5025 1.50162L13.1506 1.25001L13.2772 1.06903" fill="white"/>
<path d="M12.9941 1.5026L13.346 1.25099L13.2194 1.07001" fill="white"/>
<path d="M12.9937 1.50228L13.1243 1.08985L13.3355 1.15433" fill="white"/>
<path d="M6.3348 4.17676L6.198 4.58716L6.4068 4.65916" fill="white"/>
<path d="M6.33488 4.17676L6.47168 4.58716L6.26288 4.65916" fill="white"/>
<path d="M6.74564 4.47581L6.31306 4.47252L6.3091 4.69335" fill="white"/>
<path d="M6.74557 4.47536L6.39753 4.73229L6.26453 4.55596" fill="white"/>
<path d="M5.92362 4.47536L6.27166 4.73229L6.40466 4.55596" fill="white"/>
<path d="M5.92355 4.47581L6.35613 4.47252L6.36009 4.69335" fill="white"/>
<path d="M6.5883 4.95834L6.45775 4.54591L6.2465 4.61039" fill="white"/>
<path d="M6.58797 4.95768L6.23607 4.70607L6.36267 4.52509" fill="white"/>
<path d="M6.08098 4.95865L6.43288 4.70704L6.30628 4.52606" fill="white"/>
<path d="M6.08064 4.95834L6.2112 4.54591L6.42244 4.61039" fill="white"/>
<path d="M8.06234 4.17676L7.92554 4.58716L8.13434 4.65916" fill="white"/>
<path d="M8.06242 4.17676L8.19922 4.58716L7.99042 4.65916" fill="white"/>
<path d="M8.47343 4.47483L8.04084 4.47155L8.03689 4.69238" fill="white"/>
<path d="M8.47335 4.47439L8.12531 4.73131L7.99231 4.55498" fill="white"/>
<path d="M7.6514 4.47536L7.99944 4.73229L8.13244 4.55596" fill="white"/>
<path d="M7.65133 4.47581L8.08392 4.47252L8.08787 4.69335" fill="white"/>
<path d="M8.31584 4.95834L8.18529 4.54591L7.97404 4.61039" fill="white"/>
<path d="M8.31551 4.95768L7.96361 4.70607L8.09021 4.52509" fill="white"/>
<path d="M7.80852 4.95865L8.16042 4.70704L8.03381 4.52606" fill="white"/>
<path d="M7.80867 4.95834L7.93923 4.54591L8.15047 4.61039" fill="white"/>
<path d="M8.06234 2.44922L7.92554 2.85962L8.13434 2.93162" fill="white"/>
<path d="M8.06242 2.44922L8.19922 2.85962L7.99042 2.93162" fill="white"/>
<path d="M8.47343 2.74729L8.04084 2.74401L8.03689 2.96484" fill="white"/>
<path d="M8.47335 2.74783L8.12531 3.00475L7.99231 2.82842" fill="white"/>
<path d="M7.6514 2.74783L7.99944 3.00475L8.13244 2.82842" fill="white"/>
<path d="M7.65133 2.74827L8.08392 2.74498L8.08787 2.96581" fill="white"/>
<path d="M8.31584 3.2308L8.18529 2.81837L7.97404 2.88285" fill="white"/>
<path d="M8.31551 3.23014L7.96361 2.97853L8.09021 2.79755" fill="white"/>
<path d="M7.80852 3.23111L8.16042 2.9795L8.03381 2.79852" fill="white"/>
<path d="M7.80867 3.2308L7.93923 2.81837L8.15047 2.88285" fill="white"/>
</g>
<defs>
<clipPath id="clip0_9_4105">
<rect width="24" height="18" rx="2.72727" fill="white"/>
</clipPath>
</defs>
</svg>
