<svg width="50" height="18" viewBox="0 0 50 18" fill="none" xmlns="http://www.w3.org/2000/svg">
<g clip-path="url(#clip0_1010_14287)">
<path d="M32.5772 0.916504C29.0316 0.916504 25.8483 2.76142 25.8483 6.14692C25.8483 10.046 31.4716 10.3122 31.4716 12.2522C31.4716 13.0701 30.5185 13.8119 28.9173 13.8119C26.6298 13.8119 24.9142 12.7848 24.9142 12.7848L24.1899 16.2083C24.1899 16.2083 26.1533 17.0833 28.7838 17.0833C32.6725 17.0833 35.7225 15.1623 35.7225 11.7007C35.7225 7.59242 30.0801 7.32614 30.0801 5.51927C30.0801 4.8726 30.8616 4.16887 32.4628 4.16887C34.2737 4.16887 35.7606 4.91064 35.7606 4.91064L36.4849 1.60121C36.4659 1.60121 34.8456 0.916504 32.5772 0.916504ZM0.0953107 1.16376L0 1.65827C0 1.65827 1.48685 1.92455 2.84026 2.47612C4.57491 3.10377 4.68929 3.46514 4.99428 4.58731L8.17766 16.817H12.4476L18.9859 1.16376H14.735L10.5223 11.8148L8.80671 2.78043C8.65421 1.75337 7.8536 1.16376 6.86237 1.16376H0.0953107ZM20.7015 1.16376L17.3656 16.817H21.4258L24.7427 1.16376H20.7015ZM43.3092 1.16376C42.337 1.16376 41.8223 1.67729 41.4411 2.59024L35.4937 16.817H39.7446L40.5642 14.4395H45.7491L46.2448 16.817H50L46.7404 1.16376H43.3092ZM43.862 5.40515L45.1201 11.2822H41.7461L43.862 5.40515Z" fill="#1434CB"/>
</g>
<defs>
<clipPath id="clip0_1010_14287">
<rect width="50" height="16.1667" fill="white" transform="translate(0 0.916504)"/>
</clipPath>
</defs>
</svg>
